<?xml version="1.0" encoding="utf-8"?>
<!-- Generator: Adobe Illustrator 16.0.0, SVG Export Plug-In . SVG Version: 6.00 Build 0)  -->
<!DOCTYPE svg PUBLIC "-//W3C//DTD SVG 1.1//EN" "http://www.w3.org/Graphics/SVG/1.1/DTD/svg11.dtd">
<svg version="1.1" id="Layer_1" xmlns="http://www.w3.org/2000/svg" xmlns:xlink="http://www.w3.org/1999/xlink" x="0px" y="0px"
	 width="18.512px" height="20.49px" viewBox="6.744 4.762 18.512 20.49" enable-background="new 6.744 4.762 18.512 20.49"
	 xml:space="preserve">
<path id="magnet_2_" fill="#D61D2A" d="M25.01,19.642c0.729-5.762,0.396-14.879-9.009-14.879c-9.412,0-9.741,9.13-9.011,14.892
	l4.871,0.014c-0.652-4.243-0.629-9.901,4.138-9.902c4.761,0,4.79,5.644,4.139,9.886L25.01,19.642z"/>
<path id="magnet_1_" fill="#CCCCCC" d="M6.989,19.652c0.336,2.657,0.898,5.6,0.898,5.6h5c0,0-0.634-3.054-1.026-5.6H6.989z"/>
<path id="magnet_3_" fill="#CCCCCC" d="M20.133,19.652c-0.392,2.546-1.026,5.6-1.026,5.6h5c0,0,0.562-2.942,0.898-5.6H20.133z"/>
</svg>
